<?xml version="1.0" encoding="UTF-8"?>
<svg width="1440px" height="800px" viewBox="0 0 1440 800" version="1.1" xmlns="http://www.w3.org/2000/svg" xmlns:xlink="http://www.w3.org/1999/xlink">
    <!-- Generator: Sketch 46.1 (44463) - http://www.bohemiancoding.com/sketch -->
    <title>Group 8</title>
    <desc>Created with Sketch.</desc>
    <defs>
        <rect id="path-1" x="0" y="0" width="1440" height="800"></rect>
    </defs>
    <g id="Page-1" stroke="none" stroke-width="1" fill="none" fill-rule="evenodd">
        <g id="pre-eclipse-home-lg" transform="translate(0.000000, -2293.000000)">
            <g id="Group-8" transform="translate(0.000000, 2293.000000)">
                <mask id="mask-2" fill="white">
                    <use xlink:href="#path-1"></use>
                </mask>
                <use id="Rectangle-Copy" fill="#2A2A38" xlink:href="#path-1"></use>
                <g id="Page-1" mask="url(#mask-2)">
                    <g transform="translate(-934.000000, 168.000000)">
                        <path d="M974.5,302 L975.121381,304.58952 C975.277283,305.244541 975.770601,305.771834 976.420935,305.984716 L978,306.5 L976.311804,307.163755 C975.722717,307.396288 975.282851,307.891921 975.13029,308.496725 L974.5,311 L973.86971,308.496725 C973.716036,307.891921 973.276169,307.396288 972.687082,307.163755 L971,306.5 L972.577951,305.984716 C973.229399,305.771834 973.721604,305.244541 973.878619,304.58952 L974.5,302 Z" id="Fill-10" stroke="none" fill="#FBF99E" fill-rule="evenodd"></path>
                        <path d="M1059.5,20 L1060.12138,22.5906114 C1060.27728,23.2456332 1060.7706,23.7729258 1061.42094,23.9847162 L1063,24.5 L1061.3118,25.1648472 C1060.72272,25.3973799 1060.28285,25.8930131 1060.13029,26.4978166 L1059.5,29 L1058.86971,26.4978166 C1058.71604,25.8930131 1058.27617,25.3973799 1057.68708,25.1648472 L1056,24.5 L1057.57795,23.9847162 C1058.2294,23.7729258 1058.7216,23.2456332 1058.87862,22.5906114 L1059.5,20 Z" id="Fill-14" stroke="none" fill="#FBF99E" fill-rule="evenodd"></path>
                        <path d="M1405.49944,103 L1406.12184,105.590611 C1406.27772,106.245633 1406.76984,106.772926 1407.42119,106.984716 L1409,107.5 L1407.31207,108.164847 C1406.72308,108.39738 1406.28328,108.893013 1406.13075,109.497817 L1405.49944,112 L1404.86925,109.497817 C1404.71672,108.893013 1404.27692,108.39738 1403.68793,108.164847 L1402,107.5 L1403.57881,106.984716 C1404.23016,106.772926 1404.72228,106.245633 1404.87816,105.590611 L1405.49944,103 Z" id="Fill-16" stroke="none" fill="#FBF99E" fill-rule="evenodd"></path>
                        <path d="M1377.5,392 L1378.12138,394.590611 C1378.27728,395.245633 1378.7706,395.772926 1379.42094,395.984716 L1381,396.5 L1379.31292,397.164847 C1378.72383,397.39738 1378.28285,397.893013 1378.13029,398.497817 L1377.5,401 L1376.86971,398.497817 C1376.71715,397.893013 1376.27617,397.39738 1375.68708,397.164847 L1374,396.5 L1375.57795,395.984716 C1376.2294,395.772926 1376.7216,395.245633 1376.87862,394.590611 L1377.5,392 Z" id="Fill-18" stroke="none" fill="#FBF99E" fill-rule="evenodd"></path>
                        <path d="M1640.5,287 L1641.12138,289.58952 C1641.27728,290.244541 1641.7706,290.771834 1642.42094,290.984716 L1644,291.5 L1642.3118,292.163755 C1641.72272,292.396288 1641.28285,292.891921 1641.13029,293.496725 L1640.5,296 L1639.8686,293.496725 C1639.71604,292.891921 1639.27617,292.396288 1638.68708,292.163755 L1637,291.5 L1638.57795,290.984716 C1639.2294,290.771834 1639.7216,290.244541 1639.87751,289.58952 L1640.5,287 Z" id="Fill-20" stroke="none" fill="#FBF99E" fill-rule="evenodd"></path>
                        <path d="M1715.5,76 L1716.12138,78.5895197 C1716.27728,79.2445415 1716.7706,79.7718341 1717.42094,79.9847162 L1719,80.5 L1717.31292,81.1637555 C1716.72383,81.3962882 1716.28285,81.8919214 1716.13029,82.4967249 L1715.5,85 L1714.86971,82.4967249 C1714.71715,81.8919214 1714.27617,81.3962882 1713.68708,81.1637555 L1712,80.5 L1713.57795,79.9847162 C1714.2294,79.7718341 1714.7216,79.2445415 1714.87862,78.5895197 L1715.5,76 Z" id="Fill-22" stroke="none" fill="#FBF99E" fill-rule="evenodd"></path>
                        <path d="M1653.5,165 L1654.12249,167.590611 C1654.2784,168.245633 1654.7706,168.772926 1655.42205,168.984716 L1657,169.5 L1655.31292,170.164847 C1654.72383,170.396288 1654.28396,170.893013 1654.1314,171.497817 L1653.5,174 L1652.86971,171.497817 C1652.71715,170.893013 1652.27728,170.396288 1651.6882,170.164847 L1650,169.5 L1651.57906,168.984716 C1652.2294,168.772926 1652.72272,168.245633 1652.87862,167.590611 L1653.5,165 Z" id="Fill-24" stroke="none" fill="#FBF99E" fill-rule="evenodd"></path>
                        <path d="M2087.5,119 L2088.12138,121.58952 C2088.2784,122.244541 2088.7706,122.772926 2089.42205,122.984716 L2091,123.5 L2089.31292,124.164847 C2088.72383,124.396288 2088.28396,124.893013 2088.13029,125.497817 L2087.5,128 L2086.86971,125.497817 C2086.71715,124.893013 2086.27728,124.396288 2085.6882,124.164847 L2084,123.5 L2085.57906,122.984716 C2086.2294,122.772926 2086.72272,122.244541 2086.87862,121.58952 L2087.5,119 Z" id="Fill-26" stroke="none" fill="#FBF99E" fill-rule="evenodd"></path>
                        <path d="M2158.49944,271 L2159.12184,273.590611 C2159.27772,274.245633 2159.76984,274.772926 2160.42119,274.984716 L2162,275.5 L2160.31207,276.164847 C2159.72308,276.39738 2159.28328,276.893013 2159.13075,277.497817 L2158.49944,280 L2157.86925,277.497817 C2157.71672,276.893013 2157.27692,276.39738 2156.68793,276.164847 L2155,275.5 L2156.57881,274.984716 C2157.22904,274.772926 2157.72228,274.245633 2157.87816,273.590611 L2158.49944,271 Z" id="Fill-28" stroke="none" fill="#FBF99E" fill-rule="evenodd"></path>
                        <path d="M2016.5,297 L2017.12138,299.58952 C2017.27728,300.244541 2017.7706,300.771834 2018.42094,300.984716 L2020,301.5 L2018.31292,302.163755 C2017.72383,302.396288 2017.28285,302.891921 2017.13029,303.496725 L2016.5,306 L2015.86971,303.496725 C2015.71715,302.891921 2015.27617,302.396288 2014.68708,302.163755 L2013,301.5 L2014.57795,300.984716 C2015.2294,300.771834 2015.7216,300.244541 2015.87862,299.58952 L2016.5,297 Z" id="Fill-30" stroke="none" fill="#FBF99E" fill-rule="evenodd"></path>
                        <path d="M1893.5,11 L1894.12138,13.5906114 C1894.2784,14.2456332 1894.7706,14.7729258 1895.42094,14.9847162 L1897,15.5 L1895.31292,16.1648472 C1894.72383,16.3973799 1894.28285,16.8930131 1894.13029,17.4978166 L1893.5,20 L1892.86971,17.4978166 C1892.71715,16.8930131 1892.27617,16.3973799 1891.68708,16.1648472 L1890,15.5 L1891.57906,14.9847162 C1892.2294,14.7729258 1892.7216,14.2456332 1892.87862,13.5906114 L1893.5,11 Z" id="Fill-32" stroke="none" fill="#FBF99E" fill-rule="evenodd"></path>
                        <path d="M1555.49944,69 L1556.12184,71.5906114 C1556.27772,72.2456332 1556.76984,72.7729258 1557.42119,72.9847162 L1559,73.5 L1557.31207,74.1648472 C1556.72308,74.3973799 1556.28328,74.8930131 1556.13075,75.4978166 L1555.49944,78 L1554.86925,75.4978166 C1554.71672,74.8930131 1554.27692,74.3973799 1553.68793,74.1648472 L1552,73.5 L1553.57881,72.9847162 C1554.23016,72.7729258 1554.72228,72.2456332 1554.87816,71.5906114 L1555.49944,69 Z" id="Fill-34" stroke="none" fill="#FBF99E" fill-rule="evenodd"></path>
                        <path d="M1164.5,352 L1165.12138,354.590611 C1165.2784,355.245633 1165.7706,355.772926 1166.42205,355.984716 L1168,356.5 L1166.31292,357.164847 C1165.72383,357.39738 1165.28396,357.893013 1165.1314,358.497817 L1164.5,361 L1163.86971,358.497817 C1163.71715,357.893013 1163.27728,357.39738 1162.6882,357.164847 L1161,356.5 L1162.57906,355.984716 C1163.2294,355.772926 1163.72272,355.245633 1163.87862,354.590611 L1164.5,352 Z" id="Fill-64" stroke="none" fill="#FBF99E" fill-rule="evenodd"></path>
                        <path d="M1076.50056,217 L1077.12184,219.58952 C1077.27772,220.244541 1077.77096,220.772926 1078.42119,220.984716 L1080,221.5 L1078.31207,222.163755 C1077.72308,222.396288 1077.28328,222.891921 1077.13075,223.497817 L1076.50056,226 L1075.86925,223.497817 C1075.71672,222.891921 1075.27692,222.396288 1074.68793,222.163755 L1073,221.5 L1074.57881,220.984716 C1075.23016,220.772926 1075.72228,220.244541 1075.87816,219.58952 L1076.50056,217 Z" id="Fill-66" stroke="none" fill="#FBF99E" fill-rule="evenodd"></path>
                        <path d="M1071.5,253 L1072.12138,255.590611 C1072.2784,256.245633 1072.7706,256.772926 1073.42205,256.984716 L1075,257.5 L1073.31292,258.164847 C1072.72383,258.39738 1072.28285,258.893013 1072.13029,259.497817 L1071.5,262 L1070.86971,259.497817 C1070.71715,258.893013 1070.27617,258.39738 1069.68708,258.164847 L1068,257.5 L1069.57906,256.984716 C1070.2294,256.772926 1070.72272,256.245633 1070.87862,255.590611 L1071.5,253 Z" id="Fill-68" stroke="none" fill="#FBF99E" fill-rule="evenodd"></path>
                        <path d="M1115.5,327 L1116.12138,329.590611 C1116.27728,330.245633 1116.7706,330.772926 1117.42094,330.984716 L1119,331.5 L1117.3118,332.164847 C1116.72272,332.396288 1116.28285,332.893013 1116.13029,333.497817 L1115.5,336 L1114.86971,333.497817 C1114.71604,332.893013 1114.27617,332.396288 1113.68708,332.164847 L1112,331.5 L1113.57795,330.984716 C1114.2294,330.772926 1114.7216,330.245633 1114.87862,329.590611 L1115.5,327 Z" id="Fill-70" stroke="none" fill="#FBF99E" fill-rule="evenodd"></path>
                        <path d="M1227.5,326 L1228.12138,328.590611 C1228.27728,329.245633 1228.7706,329.772926 1229.42094,329.984716 L1231,330.5 L1229.3118,331.164847 C1228.72272,331.39738 1228.28285,331.893013 1228.13029,332.497817 L1227.5,335 L1226.8686,332.497817 C1226.71604,331.893013 1226.27617,331.39738 1225.68708,331.164847 L1224,330.5 L1225.57795,329.984716 C1226.2294,329.772926 1226.7216,329.245633 1226.87862,328.590611 L1227.5,326 Z" id="Fill-72" stroke="none" fill="#FBF99E" fill-rule="evenodd"></path>
                        <path d="M1280.5,298 L1281.12138,300.58952 C1281.27728,301.244541 1281.7706,301.771834 1282.42094,301.984716 L1284,302.5 L1282.31292,303.163755 C1281.72383,303.396288 1281.28285,303.891921 1281.13029,304.496725 L1280.5,307 L1279.86971,304.496725 C1279.71715,303.891921 1279.27617,303.396288 1278.68708,303.163755 L1277,302.5 L1278.57795,301.984716 C1279.2294,301.771834 1279.7216,301.244541 1279.87862,300.58952 L1280.5,298 Z" id="Fill-74" stroke="none" fill="#FBF99E" fill-rule="evenodd"></path>
                        <path d="M1260.5,383 L1261.12138,385.590611 C1261.2784,386.245633 1261.7706,386.772926 1262.42205,386.984716 L1264,387.5 L1262.31292,388.164847 C1261.72383,388.39738 1261.28396,388.893013 1261.13029,389.497817 L1260.5,392 L1259.86971,389.497817 C1259.71715,388.893013 1259.27728,388.39738 1258.6882,388.164847 L1257,387.5 L1258.57906,386.984716 C1259.2294,386.772926 1259.72272,386.245633 1259.87862,385.590611 L1260.5,383 Z" id="Fill-76" stroke="none" fill="#FBF99E" fill-rule="evenodd"></path>
                        <path d="M1313.5,350 L1314.12138,352.58952 C1314.27728,353.245633 1314.7706,353.772926 1315.42094,353.984716 L1317,354.5 L1315.31292,355.164847 C1314.72383,355.396288 1314.28285,355.893013 1314.13029,356.497817 L1313.5,359 L1312.86971,356.497817 C1312.71715,355.893013 1312.27617,355.396288 1311.68708,355.164847 L1310,354.5 L1311.57795,353.984716 C1312.2294,353.772926 1312.7216,353.245633 1312.87862,352.58952 L1313.5,350 Z" id="Fill-78" stroke="none" fill="#FBF99E" fill-rule="evenodd"></path>
                        <path d="M1336.5,257 L1337.12138,259.590611 C1337.2784,260.245633 1337.7706,260.772926 1338.42205,260.984716 L1340,261.5 L1338.31292,262.164847 C1337.72383,262.39738 1337.28285,262.893013 1337.13029,263.497817 L1336.5,266 L1335.86971,263.497817 C1335.71715,262.893013 1335.27617,262.39738 1334.68708,262.164847 L1333,261.5 L1334.57906,260.984716 C1335.2294,260.772926 1335.72272,260.245633 1335.87862,259.590611 L1336.5,257 Z" id="Fill-80" stroke="none" fill="#FBF99E" fill-rule="evenodd"></path>
                        <path d="M1332.5,194 L1333.12138,196.58952 C1333.27728,197.244541 1333.7706,197.772926 1334.42094,197.984716 L1336,198.5 L1334.3118,199.163755 C1333.72272,199.396288 1333.28285,199.891921 1333.13029,200.496725 L1332.5,203 L1331.86971,200.496725 C1331.71604,199.891921 1331.27617,199.396288 1330.68708,199.163755 L1329,198.5 L1330.57795,197.984716 C1331.2294,197.772926 1331.7216,197.244541 1331.87862,196.58952 L1332.5,194 Z" id="Fill-82" stroke="none" fill="#FBF99E" fill-rule="evenodd"></path>
                        <path d="M1288.5,119 L1289.12138,121.58952 C1289.27728,122.244541 1289.7706,122.772926 1290.42094,122.984716 L1292,123.5 L1290.31292,124.164847 C1289.72383,124.396288 1289.28285,124.893013 1289.13029,125.497817 L1288.5,128 L1287.86971,125.497817 C1287.71715,124.893013 1287.27617,124.396288 1286.68708,124.164847 L1285,123.5 L1286.57795,122.984716 C1287.2294,122.772926 1287.7216,122.244541 1287.87862,121.58952 L1288.5,119 Z" id="Fill-84" stroke="none" fill="#FBF99E" fill-rule="evenodd"></path>
                        <path d="M1872.5,141 L1873.12138,143.58952 C1873.2784,144.244541 1873.7706,144.771834 1874.42094,144.984716 L1876,145.5 L1874.31292,146.163755 C1873.72383,146.396288 1873.28285,146.891921 1873.13029,147.496725 L1872.5,150 L1871.86971,147.496725 C1871.71715,146.891921 1871.27617,146.396288 1870.68708,146.163755 L1869,145.5 L1870.57906,144.984716 C1871.2294,144.771834 1871.7216,144.244541 1871.87862,143.58952 L1872.5,141 Z" id="Fill-86" stroke="none" fill="#FBF99E" fill-rule="evenodd"></path>
                        <path d="M1872.5,182 L1873.12138,184.58952 C1873.2784,185.244541 1873.7706,185.772926 1874.42094,185.984716 L1876,186.5 L1874.31292,187.163755 C1873.72383,187.396288 1873.28285,187.891921 1873.13029,188.496725 L1872.5,191 L1871.86971,188.496725 C1871.71715,187.891921 1871.27617,187.396288 1870.68708,187.163755 L1869,186.5 L1870.57906,185.984716 C1871.2294,185.772926 1871.7216,185.244541 1871.87862,184.58952 L1872.5,182 Z" id="Fill-88" stroke="none" fill="#FBF99E" fill-rule="evenodd"></path>
                        <path d="M1815.5,167 L1816.12138,169.58952 C1816.27728,170.244541 1816.7706,170.772926 1817.42094,170.984716 L1819,171.5 L1817.3118,172.163755 C1816.72272,172.396288 1816.28285,172.891921 1816.13029,173.497817 L1815.5,176 L1814.86971,173.497817 C1814.71604,172.891921 1814.27617,172.396288 1813.68708,172.163755 L1812,171.5 L1813.57795,170.984716 C1814.2294,170.772926 1814.7216,170.244541 1814.87862,169.58952 L1815.5,167 Z" id="Fill-90" stroke="none" fill="#FBF99E" fill-rule="evenodd"></path>
                        <path d="M1928.5,167 L1929.12249,169.58952 C1929.2784,170.244541 1929.7706,170.772926 1930.42205,170.984716 L1932,171.5 L1930.31292,172.163755 C1929.72383,172.396288 1929.28396,172.891921 1929.1314,173.497817 L1928.5,176 L1927.86971,173.497817 C1927.71715,172.891921 1927.27728,172.396288 1926.6882,172.163755 L1925,171.5 L1926.57906,170.984716 C1927.2294,170.772926 1927.72272,170.244541 1927.87862,169.58952 L1928.5,167 Z" id="Fill-92" stroke="none" fill="#FBF99E" fill-rule="evenodd"></path>
                        <path d="M1914.49944,194 L1915.12184,196.58952 C1915.27772,197.244541 1915.76984,197.772926 1916.42119,197.984716 L1918,198.5 L1916.31207,199.163755 C1915.72308,199.396288 1915.28328,199.891921 1915.13075,200.496725 L1914.49944,203 L1913.86925,200.496725 C1913.71672,199.891921 1913.27692,199.396288 1912.68793,199.163755 L1911,198.5 L1912.57881,197.984716 C1913.22904,197.772926 1913.72228,197.244541 1913.87816,196.58952 L1914.49944,194 Z" id="Fill-94" stroke="none" fill="#FBF99E" fill-rule="evenodd"></path>
                        <path d="M1949.5,219 L1950.12138,221.58952 C1950.2784,222.244541 1950.7706,222.772926 1951.42094,222.984716 L1953,223.5 L1951.31292,224.163755 C1950.72383,224.396288 1950.28285,224.891921 1950.13029,225.496725 L1949.5,228 L1948.86971,225.496725 C1948.71715,224.891921 1948.27617,224.396288 1947.68708,224.163755 L1946,223.5 L1947.57906,222.984716 C1948.2294,222.772926 1948.7216,222.244541 1948.87862,221.58952 L1949.5,219 Z" id="Fill-96" stroke="none" fill="#FBF99E" fill-rule="evenodd"></path>
                        <path d="M1965.5,258 L1966.12138,260.590611 C1966.27728,261.245633 1966.7706,261.772926 1967.42094,261.984716 L1969,262.5 L1967.3118,263.164847 C1966.72272,263.39738 1966.28285,263.893013 1966.13029,264.497817 L1965.5,267 L1964.8686,264.497817 C1964.71604,263.893013 1964.27617,263.39738 1963.68708,263.164847 L1962,262.5 L1963.57795,261.984716 C1964.2294,261.772926 1964.7216,261.245633 1964.87862,260.590611 L1965.5,258 Z" id="Fill-98" stroke="none" fill="#FBF99E" fill-rule="evenodd"></path>
                        <path d="M1965.5,275 L1966.12138,277.590611 C1966.27728,278.245633 1966.7706,278.772926 1967.42094,278.984716 L1969,279.5 L1967.3118,280.164847 C1966.72272,280.39738 1966.28285,280.893013 1966.13029,281.497817 L1965.5,284 L1964.8686,281.497817 C1964.71604,280.893013 1964.27617,280.39738 1963.68708,280.164847 L1962,279.5 L1963.57795,278.984716 C1964.2294,278.772926 1964.7216,278.245633 1964.87862,277.590611 L1965.5,275 Z" id="Fill-100" stroke="none" fill="#FBF99E" fill-rule="evenodd"></path>
                        <path d="M1932.5,369 L1933.12249,371.590611 C1933.2784,372.245633 1933.7706,372.772926 1934.42205,372.984716 L1936,373.5 L1934.31292,374.164847 C1933.72383,374.39738 1933.28396,374.893013 1933.1314,375.497817 L1932.5,378 L1931.86971,375.497817 C1931.71715,374.893013 1931.27728,374.39738 1930.6882,374.164847 L1929,373.5 L1930.57906,372.984716 C1931.2294,372.772926 1931.72272,372.245633 1931.87862,371.590611 L1932.5,369 Z" id="Fill-102" stroke="none" fill="#FBF99E" fill-rule="evenodd"></path>
                        <path d="M1778.5,258 L1779.12138,260.590611 C1779.2784,261.245633 1779.7706,261.772926 1780.42205,261.984716 L1782,262.5 L1780.31292,263.164847 C1779.72383,263.39738 1779.28396,263.893013 1779.1314,264.497817 L1778.5,267 L1777.86971,264.497817 C1777.71715,263.893013 1777.27728,263.39738 1776.6882,263.164847 L1775,262.5 L1776.57906,261.984716 C1777.2294,261.772926 1777.72272,261.245633 1777.87862,260.590611 L1778.5,258 Z" id="Fill-104" stroke="none" fill="#FBF99E" fill-rule="evenodd"></path>
                        <path d="M1778.5,275 L1779.12138,277.590611 C1779.2784,278.245633 1779.7706,278.772926 1780.42205,278.984716 L1782,279.5 L1780.31292,280.164847 C1779.72383,280.39738 1779.28396,280.893013 1779.1314,281.497817 L1778.5,284 L1777.86971,281.497817 C1777.71715,280.893013 1777.27728,280.39738 1776.6882,280.164847 L1775,279.5 L1776.57906,278.984716 C1777.2294,278.772926 1777.72272,278.245633 1777.87862,277.590611 L1778.5,275 Z" id="Fill-106" stroke="none" fill="#FBF99E" fill-rule="evenodd"></path>
                        <path d="M1811.5,366 L1812.12138,368.590611 C1812.27728,369.245633 1812.7706,369.772926 1813.42094,369.984716 L1815,370.5 L1813.3118,371.164847 C1812.72272,371.39738 1812.28285,371.893013 1812.13029,372.497817 L1811.5,375 L1810.8686,372.497817 C1810.71604,371.893013 1810.27617,371.39738 1809.68708,371.164847 L1808,370.5 L1809.57795,369.984716 C1810.2294,369.772926 1810.7216,369.245633 1810.87862,368.590611 L1811.5,366 Z" id="Fill-108" stroke="none" fill="#FBF99E" fill-rule="evenodd"></path>
                        <path d="M1828.49944,194 L1829.12184,196.58952 C1829.27772,197.244541 1829.76984,197.772926 1830.42119,197.984716 L1832,198.5 L1830.31207,199.163755 C1829.72308,199.396288 1829.28328,199.891921 1829.13075,200.496725 L1828.49944,203 L1827.86925,200.496725 C1827.71672,199.891921 1827.27692,199.396288 1826.68793,199.163755 L1825,198.5 L1826.57881,197.984716 C1827.23016,197.772926 1827.72228,197.244541 1827.87816,196.58952 L1828.49944,194 Z" id="Fill-110" stroke="none" fill="#FBF99E" fill-rule="evenodd"></path>
                        <path d="M1790.5,219 L1791.12249,221.58952 C1791.2784,222.244541 1791.7706,222.772926 1792.42205,222.984716 L1794,223.5 L1792.31292,224.163755 C1791.72383,224.396288 1791.28396,224.891921 1791.1314,225.496725 L1790.5,228 L1789.86971,225.496725 C1789.71715,224.891921 1789.27728,224.396288 1788.6882,224.163755 L1787,223.5 L1788.57906,222.984716 C1789.2294,222.772926 1789.72272,222.244541 1789.87862,221.58952 L1790.5,219 Z" id="Fill-112" stroke="none" fill="#FBF99E" fill-rule="evenodd"></path>
                        <path d="M1158.5,16 L1159.12138,18.5906114 C1159.27728,19.2456332 1159.7706,19.7729258 1160.42094,19.9847162 L1162,20.5 L1160.31292,21.1648472 C1159.72383,21.3973799 1159.28285,21.8930131 1159.13029,22.4978166 L1158.5,25 L1157.86971,22.4978166 C1157.71715,21.8930131 1157.27617,21.3973799 1156.68708,21.1648472 L1155,20.5 L1156.57795,19.9847162 C1157.2294,19.7729258 1157.7216,19.2456332 1157.87862,18.5906114 L1158.5,16 Z" id="Fill-114" stroke="none" fill="#FBF99E" fill-rule="evenodd"></path>
                        <path d="M1159.5,58 L1160.12138,60.5895197 C1160.27728,61.2445415 1160.7706,61.7718341 1161.42094,61.9847162 L1163,62.5 L1161.3118,63.1637555 C1160.72272,63.3962882 1160.28285,63.8919214 1160.13029,64.4967249 L1159.5,67 L1158.8686,64.4967249 C1158.71604,63.8919214 1158.27617,63.3962882 1157.68708,63.1637555 L1156,62.5 L1157.57795,61.9847162 C1158.2294,61.7718341 1158.7216,61.2445415 1158.87751,60.5895197 L1159.5,58 Z" id="Fill-116" stroke="none" fill="#FBF99E" fill-rule="evenodd"></path>
                        <path d="M1110.5,172 L1111.12249,174.58952 C1111.2784,175.244541 1111.7706,175.772926 1112.42205,175.984716 L1114,176.5 L1112.31292,177.163755 C1111.72383,177.396288 1111.28396,177.891921 1111.1314,178.497817 L1110.5,181 L1109.86971,178.497817 C1109.71715,177.891921 1109.27728,177.396288 1108.6882,177.163755 L1107,176.5 L1108.57906,175.984716 C1109.2294,175.772926 1109.72272,175.244541 1109.87862,174.58952 L1110.5,172 Z" id="Fill-118" stroke="none" fill="#FBF99E" fill-rule="evenodd"></path>
                        <path d="M1162.5,157 L1163.12138,159.58952 C1163.2784,160.245633 1163.7706,160.772926 1164.42205,160.984716 L1166,161.5 L1164.31292,162.164847 C1163.72383,162.396288 1163.28396,162.893013 1163.1314,163.497817 L1162.5,166 L1161.86971,163.497817 C1161.71715,162.893013 1161.27728,162.396288 1160.6882,162.164847 L1159,161.5 L1160.57906,160.984716 C1161.2294,160.772926 1161.72272,160.245633 1161.87862,159.58952 L1162.5,157 Z" id="Fill-120" stroke="none" fill="#FBF99E" fill-rule="evenodd"></path>
                        <path d="M1199.5,118 L1200.12138,120.590611 C1200.27728,121.245633 1200.7706,121.772926 1201.42094,121.984716 L1203,122.5 L1201.3118,123.164847 C1200.72272,123.396288 1200.28285,123.893013 1200.13029,124.497817 L1199.5,127 L1198.8686,124.497817 C1198.71604,123.893013 1198.27617,123.396288 1197.68708,123.164847 L1196,122.5 L1197.57795,121.984716 C1198.2294,121.772926 1198.7216,121.245633 1198.87751,120.590611 L1199.5,118 Z" id="Fill-122" stroke="none" fill="#FBF99E" fill-rule="evenodd"></path>
                        <path d="M1183.5,190 L1184.12138,192.58952 C1184.2784,193.244541 1184.7706,193.771834 1185.42205,193.984716 L1187,194.5 L1185.31292,195.163755 C1184.72383,195.396288 1184.28396,195.891921 1184.13029,196.496725 L1183.5,199 L1182.86971,196.496725 C1182.71715,195.891921 1182.27728,195.396288 1181.6882,195.163755 L1180,194.5 L1181.57906,193.984716 C1182.2294,193.771834 1182.72272,193.244541 1182.87862,192.58952 L1183.5,190 Z" id="Fill-124" stroke="none" fill="#FBF99E" fill-rule="evenodd"></path>
                        <path d="M1143.5,197 L1144.12249,199.590611 C1144.2784,200.245633 1144.7706,200.772926 1145.42205,200.984716 L1147,201.5 L1145.31292,202.164847 C1144.72383,202.39738 1144.28396,202.893013 1144.1314,203.497817 L1143.5,206 L1142.86971,203.497817 C1142.71715,202.893013 1142.27728,202.39738 1141.6882,202.164847 L1140,201.5 L1141.57906,200.984716 C1142.2294,200.772926 1142.72272,200.245633 1142.87862,199.590611 L1143.5,197 Z" id="Fill-126" stroke="none" fill="#FBF99E" fill-rule="evenodd"></path>
                        <path d="M1165.5,218 L1166.12138,220.590611 C1166.2784,221.245633 1166.7706,221.772926 1167.42205,221.984716 L1169,222.5 L1167.31292,223.164847 C1166.72383,223.39738 1166.28396,223.893013 1166.13029,224.497817 L1165.5,227 L1164.86971,224.497817 C1164.71715,223.893013 1164.27728,223.39738 1163.6882,223.164847 L1162,222.5 L1163.57906,221.984716 C1164.2294,221.772926 1164.72272,221.245633 1164.87862,220.590611 L1165.5,218 Z" id="Fill-128" stroke="none" fill="#FBF99E" fill-rule="evenodd"></path>
                        <path d="M1220.5,186 L1221.12138,188.58952 C1221.2784,189.244541 1221.7706,189.771834 1222.42205,189.984716 L1224,190.5 L1222.31292,191.163755 C1221.72383,191.396288 1221.28396,191.891921 1221.1314,192.496725 L1220.5,195 L1219.86971,192.496725 C1219.71715,191.891921 1219.27728,191.396288 1218.6882,191.163755 L1217,190.5 L1218.57906,189.984716 C1219.2294,189.771834 1219.72272,189.244541 1219.87862,188.58952 L1220.5,186 Z" id="Fill-130" stroke="none" fill="#FBF99E" fill-rule="evenodd"></path>
                        <path d="M1205.5,165 L1206.12138,167.590611 C1206.2784,168.245633 1206.7706,168.772926 1207.42205,168.984716 L1209,169.5 L1207.31292,170.164847 C1206.72383,170.39738 1206.28396,170.893013 1206.13029,171.497817 L1205.5,174 L1204.86971,171.497817 C1204.71715,170.893013 1204.27728,170.39738 1203.6882,170.164847 L1202,169.5 L1203.57906,168.984716 C1204.2294,168.772926 1204.72272,168.245633 1204.87862,167.590611 L1205.5,165 Z" id="Fill-132" stroke="none" fill="#FBF99E" fill-rule="evenodd"></path>
                        <path d="M1257.5,111 L1258.12138,113.590611 C1258.27728,114.245633 1258.7706,114.772926 1259.42094,114.984716 L1261,115.5 L1259.31292,116.164847 C1258.72383,116.39738 1258.28285,116.893013 1258.13029,117.497817 L1257.5,120 L1256.86971,117.497817 C1256.71715,116.893013 1256.27617,116.39738 1255.68708,116.164847 L1254,115.5 L1255.57795,114.984716 C1256.2294,114.772926 1256.7216,114.245633 1256.87862,113.590611 L1257.5,111 Z" id="Fill-134" stroke="none" fill="#FBF99E" fill-rule="evenodd"></path>
                        <path d="M1109.5,72 L1110.12138,74.5895197 C1110.2784,75.2445415 1110.7706,75.7718341 1111.42205,75.9847162 L1113,76.5 L1111.31292,77.1637555 C1110.72383,77.3962882 1110.28396,77.8919214 1110.13029,78.4967249 L1109.5,81 L1108.86971,78.4967249 C1108.71715,77.8919214 1108.27728,77.3962882 1107.6882,77.1637555 L1106,76.5 L1107.57906,75.9847162 C1108.2294,75.7718341 1108.72272,75.2445415 1108.87862,74.5895197 L1109.5,72 Z" id="Fill-136" stroke="none" fill="#FBF99E" fill-rule="evenodd"></path>
                        <path d="M1058.5,161 L1059.12138,163.590611 C1059.2784,164.245633 1059.7706,164.772926 1060.42205,164.984716 L1062,165.5 L1060.31292,166.164847 C1059.72383,166.396288 1059.28285,166.893013 1059.13029,167.497817 L1058.5,170 L1057.86971,167.497817 C1057.71715,166.893013 1057.27617,166.396288 1056.68708,166.164847 L1055,165.5 L1056.57906,164.984716 C1057.2294,164.772926 1057.72272,164.245633 1057.87862,163.590611 L1058.5,161 Z" id="Fill-138" stroke="none" fill="#FBF99E" fill-rule="evenodd"></path>
                        <path d="M1228.5,73 L1229.12138,75.5906114 C1229.27728,76.2456332 1229.7706,76.7729258 1230.42094,76.9847162 L1232,77.5 L1230.31292,78.1648472 C1229.72272,78.3973799 1229.28285,78.8930131 1229.13029,79.4978166 L1228.5,82 L1227.86971,79.4978166 C1227.71715,78.8930131 1227.27617,78.3973799 1226.68708,78.1648472 L1225,77.5 L1226.57795,76.9847162 C1227.2294,76.7729258 1227.7216,76.2456332 1227.87862,75.5906114 L1228.5,73 Z" id="Fill-140" stroke="none" fill="#FBF99E" fill-rule="evenodd"></path>
                        <path d="M1042.5,87 L1043.12138,89.5906114 C1043.2784,90.2456332 1043.7706,90.7729258 1044.42205,90.9847162 L1046,91.5 L1044.31292,92.1648472 C1043.72383,92.3973799 1043.28396,92.8930131 1043.13029,93.4978166 L1042.5,96 L1041.86971,93.4978166 C1041.71715,92.8930131 1041.27728,92.3973799 1040.6882,92.1648472 L1039,91.5 L1040.57906,90.9847162 C1041.2294,90.7729258 1041.72272,90.2456332 1041.87862,89.5906114 L1042.5,87 Z" id="Fill-142" stroke="none" fill="#FBF99E" fill-rule="evenodd"></path>
                        <path d="M1076.5,106 L1077.12138,108.590611 C1077.27728,109.245633 1077.7706,109.772926 1078.42094,109.984716 L1080,110.5 L1078.31292,111.164847 C1077.72383,111.39738 1077.28285,111.893013 1077.13029,112.497817 L1076.5,115 L1075.86971,112.497817 C1075.71715,111.893013 1075.27617,111.39738 1074.68708,111.164847 L1073,110.5 L1074.57795,109.984716 C1075.2294,109.772926 1075.7216,109.245633 1075.87862,108.590611 L1076.5,106 Z" id="Fill-144" stroke="none" fill="#FBF99E" fill-rule="evenodd"></path>
                        <path d="M1443.5,305 L1444.47675,309.317314 C1444.72259,310.408389 1445.49759,311.287439 1446.51954,311.64158 L1449,312.5 L1446.34867,313.608267 C1445.42263,313.995645 1444.73141,314.820828 1444.49108,315.829386 L1443.5,320 L1442.50892,315.829386 C1442.26969,314.820828 1441.57847,313.995645 1440.65133,313.608267 L1438,312.5 L1440.48156,311.64158 C1441.50351,311.287439 1442.27741,310.408389 1442.52435,309.317314 L1443.5,305 Z" id="Fill-206" stroke="none" fill="#FFFFFF" fill-rule="evenodd"></path>
                        <path d="M1494.50055,252 L1495.4763,256.317314 C1495.72216,257.408389 1496.49724,258.287439 1497.51929,258.64158 L1500,259.5 L1497.3484,260.608267 C1496.42227,260.995645 1495.73098,261.820828 1495.49173,262.82824 L1494.50055,267 L1493.50827,262.82824 C1493.26902,261.820828 1492.57773,260.995645 1491.6516,260.608267 L1489,259.5 L1491.48071,258.64158 C1492.50276,258.287439 1493.27784,257.408389 1493.5237,256.317314 L1494.50055,252 Z" id="Fill-208" stroke="none" fill="#FFFFFF" fill-rule="evenodd"></path>
                        <path d="M1345.5,52 L1346.47565,56.3169837 C1346.72259,57.4079762 1347.49649,58.2881045 1348.51844,58.6422187 L1351,59.499427 L1348.34867,60.6087554 C1347.42153,60.9949576 1346.73031,61.8212239 1346.49108,62.8285583 L1345.5,67 L1344.50892,62.8285583 C1344.26859,61.8212239 1343.57737,60.9949576 1342.65133,60.6087554 L1340,59.499427 L1342.48046,58.6422187 C1343.50241,58.2881045 1344.27741,57.4079762 1344.52325,56.3169837 L1345.5,52 Z" id="Fill-210" stroke="none" fill="#FFFFFF" fill-rule="evenodd"></path>
                        <path d="M2087.5,329 L2088.47675,333.317314 C2088.72259,334.408389 2089.49649,335.287439 2090.51954,335.64158 L2093,336.5 L2090.34867,337.608267 C2089.42263,337.995645 2088.73141,338.820828 2088.49108,339.829386 L2087.5,344 L2086.50892,339.829386 C2086.26969,338.820828 2085.57847,337.995645 2084.65133,337.608267 L2082,336.5 L2084.48156,335.64158 C2085.50351,335.287439 2086.27741,334.408389 2086.52325,333.317314 L2087.5,329 Z" id="Fill-212" stroke="none" fill="#FFFFFF" fill-rule="evenodd"></path>
                        <path d="M2134.5,47 L2135.47675,51.3173136 C2135.72259,52.4083894 2136.49649,53.2874389 2137.51844,53.6427262 L2140,54.5 L2137.34867,55.6082671 C2136.42153,55.9956449 2135.73031,56.8219743 2135.49108,57.8293857 L2134.5,62 L2133.50892,57.8293857 C2133.26859,56.8219743 2132.57737,55.9956449 2131.65133,55.6082671 L2129,54.5 L2131.48046,53.6427262 C2132.50351,53.2874389 2133.27741,52.4083894 2133.52325,51.3173136 L2134.5,47 Z" id="Fill-214" stroke="none" fill="#FBF99E" fill-rule="evenodd"></path>
                        <path d="M1105.5,131 L1106.47675,135.317314 C1106.72259,136.408389 1107.49649,137.287439 1108.51844,137.64158 L1111,138.5 L1108.34867,139.608267 C1107.42153,139.995645 1106.73141,140.821974 1106.49108,141.829386 L1105.5,146 L1104.50892,141.829386 C1104.26859,140.821974 1103.57847,139.995645 1102.65133,139.608267 L1100,138.5 L1102.48156,137.64158 C1103.50351,137.287439 1104.27741,136.408389 1104.52325,135.317314 L1105.5,131 Z" id="Fill-222" stroke="none" fill="#FFFFFF" fill-rule="evenodd"></path>
                        <path d="M1208.5,231 L1209.47675,235.31813 C1209.72259,236.407976 1210.49649,237.288105 1211.51844,237.642219 L1214,238.500573 L1211.34867,239.608755 C1210.42153,239.996104 1209.73141,240.821224 1209.49108,241.828558 L1208.5,246 L1207.50892,241.828558 C1207.26859,240.821224 1206.57847,239.996104 1205.65133,239.608755 L1203,238.500573 L1205.48156,237.642219 C1206.50351,237.288105 1207.27741,236.407976 1207.52325,235.31813 L1208.5,231 Z" id="Fill-224" stroke="none" fill="#FFFFFF" fill-rule="evenodd"></path>
                        <path d="M1238.5,279 L1239.47675,283.317314 C1239.72259,284.408389 1240.49649,285.287439 1241.51844,285.64158 L1244,286.5 L1241.34867,287.608267 C1240.42153,287.995645 1239.73031,288.820828 1239.49108,289.829386 L1238.5,294 L1237.50892,289.829386 C1237.26859,288.820828 1236.57737,287.995645 1235.65133,287.608267 L1233,286.5 L1235.48046,285.64158 C1236.50351,285.287439 1237.27741,284.408389 1237.52325,283.317314 L1238.5,279 Z" id="Fill-226" stroke="none" fill="#FFFFFF" fill-rule="evenodd"></path>
                        <path d="M1164.5,93 L1165.47675,97.3173136 C1165.72259,98.4083894 1166.49759,99.2874389 1167.51954,99.6415801 L1170,100.5 L1167.34867,101.608267 C1166.42263,101.995645 1165.73141,102.821974 1165.49108,103.829386 L1164.5,108 L1163.50892,103.829386 C1163.26969,102.821974 1162.57847,101.995645 1161.65133,101.608267 L1159,100.5 L1161.48156,99.6415801 C1162.50351,99.2874389 1163.27741,98.4083894 1163.52435,97.3173136 L1164.5,93 Z" id="Fill-228" stroke="none" fill="#FFFFFF" fill-rule="evenodd"></path>
                        <path d="M1835.5,222 L1836.47675,226.317314 C1836.72259,227.408389 1837.49759,228.287439 1838.51954,228.64158 L1841,229.5 L1838.34867,230.608267 C1837.42263,230.995645 1836.73141,231.820828 1836.49108,232.82824 L1835.5,237 L1834.50892,232.82824 C1834.26969,231.820828 1833.57847,230.995645 1832.65133,230.608267 L1830,229.5 L1832.48156,228.64158 C1833.50351,228.287439 1834.27741,227.408389 1834.52435,226.317314 L1835.5,222 Z" id="Fill-230" stroke="none" fill="#FFFFFF" fill-rule="evenodd"></path>
                        <path d="M1872.5,107 L1873.47675,111.317314 C1873.72259,112.408389 1874.49759,113.287439 1875.51954,113.64158 L1878,114.5 L1875.34867,115.608267 C1874.42263,115.995645 1873.73141,116.820828 1873.49108,117.829386 L1872.5,122 L1871.50892,117.829386 C1871.26969,116.820828 1870.57847,115.995645 1869.65133,115.608267 L1867,114.5 L1869.48156,113.64158 C1870.50351,113.287439 1871.27741,112.408389 1871.52435,111.317314 L1872.5,107 Z" id="Fill-232" stroke="none" fill="#FFFFFF" fill-rule="evenodd"></path>
                        <path d="M1912.5,224 L1913.47565,228.317314 C1913.72259,229.407243 1914.49649,230.287439 1915.51844,230.64158 L1918,231.5 L1915.34867,232.608267 C1914.42153,232.995645 1913.73031,233.820828 1913.49108,234.82824 L1912.5,239 L1911.50892,234.82824 C1911.26859,233.820828 1910.57737,232.995645 1909.65133,232.608267 L1907,231.5 L1909.48046,230.64158 C1910.50241,230.287439 1911.27741,229.407243 1911.52325,228.317314 L1912.5,224 Z" id="Fill-234" stroke="none" fill="#FFFFFF" fill-rule="evenodd"></path>
                        <path d="M1017,230 C1017,231.105784 1016.10555,232 1015.00052,232 C1013.89445,232 1013,231.105784 1013,230 C1013,228.895258 1013.89445,228 1015.00052,228 C1016.10555,228 1017,228.895258 1017,230" id="Fill-246" stroke="none" fill="#FFFFFF" fill-rule="evenodd"></path>
                        <path d="M977,198.000521 C977,199.105551 976.104742,200 975,200 C973.895258,200 973,199.105551 973,198.000521 C973,196.894449 973.895258,196 975,196 C976.104742,196 977,196.894449 977,198.000521" id="Fill-248" stroke="none" fill="#FFFFFF" fill-rule="evenodd"></path>
                        <path d="M938,44 C938,45.1047421 937.105784,46 936,46 C934.895258,46 934,45.1047421 934,44 C934,42.8952579 934.895258,42 936,42 C937.105784,42 938,42.8952579 938,44" id="Fill-252" stroke="none" fill="#FFFFFF" fill-rule="evenodd"></path>
                        <path d="M1459,7.00052124 C1459,8.10555121 1458.10578,9 1457,9 C1455.89526,9 1455,8.10555121 1455,7.00052124 C1455,5.89444879 1455.89526,5 1457,5 C1458.10578,5 1459,5.89444879 1459,7.00052124" id="Fill-254" stroke="none" fill="#FFFFFF" fill-rule="evenodd"></path>
                        <path d="M1208,397 C1208,398.105784 1207.10474,399 1206,399 C1204.89526,399 1204,398.105784 1204,397 C1204,395.895258 1204.89526,395 1206,395 C1207.10474,395 1208,395.895258 1208,397" id="Fill-256" stroke="none" fill="#FFFFFF" fill-rule="evenodd"></path>
                        <path d="M1407,230 C1407,231.105784 1406.10555,232 1404.99948,232 C1403.89445,232 1403,231.105784 1403,230 C1403,228.895258 1403.89445,228 1404.99948,228 C1406.10555,228 1407,228.895258 1407,230" id="Fill-258" stroke="none" fill="#FFFFFF" fill-rule="evenodd"></path>
                        <path d="M1726,227.999479 C1726,229.105551 1725.10578,230 1724,230 C1722.89526,230 1722,229.105551 1722,227.999479 C1722,226.894449 1722.89526,226 1724,226 C1725.10578,226 1726,226.894449 1726,227.999479" id="Fill-260" stroke="none" fill="#FFFFFF" fill-rule="evenodd"></path>
                        <path d="M1572,195.000521 C1572,196.105551 1571.10474,197 1570,197 C1568.89526,197 1568,196.105551 1568,195.000521 C1568,193.894449 1568.89526,193 1570,193 C1571.10474,193 1572,193.894449 1572,195.000521" id="Fill-262" stroke="none" fill="#FFFFFF" fill-rule="evenodd"></path>
                        <path d="M1977,97 C1977,98.1047421 1976.10555,99 1974.99948,99 C1973.89445,99 1973,98.1047421 1973,97 C1973,95.8952579 1973.89445,95 1974.99948,95 C1976.10555,95 1977,95.8952579 1977,97" id="Fill-264" stroke="none" fill="#FFFFFF" fill-rule="evenodd"></path>
                        <path d="M2178,189 C2178,190.104742 2177.10578,191 2176,191 C2174.89526,191 2174,190.104742 2174,189 C2174,187.894216 2174.89526,187 2176,187 C2177.10578,187 2178,187.894216 2178,189" id="Fill-266" stroke="none" fill="#FFFFFF" fill-rule="evenodd"></path>
                        <path d="M1786,25 C1786,26.1057843 1785.10474,27 1784,27 C1782.89526,27 1782,26.1057843 1782,25 C1782,23.8952579 1782.89526,23 1784,23 C1785.10474,23 1786,23.8952579 1786,25" id="Fill-268" stroke="none" fill="#FFFFFF" fill-rule="evenodd"></path>
                        <path d="M1818,55 C1818,56.1057843 1817.10474,57 1816,57 C1814.89526,57 1814,56.1057843 1814,55 C1814,53.8952579 1814.89526,53 1816,53 C1817.10474,53 1818,53.8952579 1818,55" id="Fill-270" stroke="none" fill="#FFFFFF" fill-rule="evenodd"></path>
                        <path d="M1680,336 C1680,337.104742 1679.10474,338 1678,338 C1676.89526,338 1676,337.104742 1676,336 C1676,334.895258 1676.89526,334 1678,334 C1679.10474,334 1680,334.895258 1680,336" id="Fill-272" stroke="none" fill="#FFFFFF" fill-rule="evenodd"></path>
                        <path d="M2061,242 C2061,243.104742 2060.10474,244 2059,244 C2057.89526,244 2057,243.104742 2057,242 C2057,240.894216 2057.89526,240 2059,240 C2060.10474,240 2061,240.894216 2061,242" id="Fill-274" stroke="none" fill="#FFFFFF" fill-rule="evenodd"></path>
                        <path d="M1540,166 C1540,167.104742 1539.10474,168 1538,168 C1536.89526,168 1536,167.104742 1536,166 C1536,164.894216 1536.89526,164 1538,164 C1539.10474,164 1540,164.894216 1540,166" id="Fill-276" stroke="none" fill="#FFFFFF" fill-rule="evenodd"></path>
                        <path d="M2294.49944,110 L2295.12184,112.590611 C2295.27772,113.245633 2295.76984,113.772926 2296.42119,113.984716 L2298,114.5 L2296.31207,115.164847 C2295.72308,115.39738 2295.28328,115.893013 2295.13075,116.497817 L2294.49944,119 L2293.86925,116.497817 C2293.71672,115.893013 2293.27692,115.39738 2292.68793,115.164847 L2291,114.5 L2292.57881,113.984716 C2293.22904,113.772926 2293.72228,113.245633 2293.87816,112.590611 L2294.49944,110 Z" id="Fill-292" stroke="none" fill="#FBF99E" fill-rule="evenodd"></path>
                        <path d="M2259.5,149 L2260.12138,151.590611 C2260.2784,152.245633 2260.7706,152.772926 2261.42205,152.984716 L2263,153.5 L2261.31292,154.164847 C2260.72383,154.39738 2260.28396,154.893013 2260.1314,155.497817 L2259.5,158 L2258.86971,155.497817 C2258.71715,154.893013 2258.27728,154.39738 2257.6882,154.164847 L2256,153.5 L2257.57906,152.984716 C2258.2294,152.772926 2258.72272,152.245633 2258.87862,151.590611 L2259.5,149 Z" id="Fill-313" stroke="none" fill="#FBF99E" fill-rule="evenodd"></path>
                        <path d="M2351.5,335 L2352.47675,339.317314 C2352.72259,340.408389 2353.49649,341.287439 2354.51844,341.64158 L2357,342.5 L2354.34867,343.608267 C2353.42153,343.995645 2352.73141,344.820828 2352.49218,345.82824 L2351.5,350 L2350.50892,345.82824 C2350.26859,344.820828 2349.57847,343.995645 2348.65133,343.608267 L2346,342.5 L2348.48156,341.64158 C2349.50351,341.287439 2350.27741,340.408389 2350.52325,339.317314 L2351.5,335 Z" id="Fill-374" stroke="none" fill="#FFFFFF" fill-rule="evenodd"></path>
                        <path d="M2288.50055,15 L2289.4763,19.3173136 C2289.72216,20.4072433 2290.49724,21.2874389 2291.51929,21.6415801 L2294,22.5 L2291.3484,23.6082671 C2290.42227,23.9956449 2289.73098,24.8208282 2289.49173,25.8282396 L2288.50055,30 L2287.50827,25.8282396 C2287.26902,24.8208282 2286.57773,23.9956449 2285.6516,23.6082671 L2283,22.5 L2285.48071,21.6415801 C2286.50276,21.2874389 2287.27784,20.4072433 2287.5237,19.3173136 L2288.50055,15 Z" id="Fill-376" stroke="none" fill="#FFFFFF" fill-rule="evenodd"></path>
                        <path d="M2287,271 C2287,272.104742 2286.10474,273 2285,273 C2283.89526,273 2283,272.104742 2283,271 C2283,269.895258 2283.89526,269 2285,269 C2286.10474,269 2287,269.895258 2287,271" id="Fill-390" stroke="none" fill="#FFFFFF" fill-rule="evenodd"></path>
                        <path d="M1149,200 L1174,197" id="Stroke-550" stroke="#657FAF" stroke-width="0.5" fill="none"></path>
                        <path d="M1188,190 L1201,175" id="Stroke-552" stroke="#657FAF" stroke-width="0.5" fill="none"></path>
                        <path d="M1178,200 L1168,217" id="Stroke-554" stroke="#657FAF" stroke-width="0.5" fill="none"></path>
                        <path d="M1151,207 L1161,217" id="Stroke-556" stroke="#657FAF" stroke-width="0.5" fill="none"></path>
                        <path d="M1190,193 L1212,191" id="Stroke-558" stroke="#657FAF" stroke-width="0.5" fill="none"></path>
                        <path d="M1208,175 L1217,186" id="Stroke-560" stroke="#657FAF" stroke-width="0.5" fill="none"></path>
                        <path d="M1116,176 L1157,166" id="Stroke-562" stroke="#657FAF" stroke-width="0.5" fill="none"></path>
                        <path d="M1166,159 L1198,129" id="Stroke-564" stroke="#657FAF" stroke-width="0.5" fill="none"></path>
                        <path d="M1081,104 L1105,80" id="Stroke-566" stroke="#657FAF" stroke-width="0.5" fill="none"></path>
                        <path d="M1117,73 L1153,61" id="Stroke-568" stroke="#657FAF" stroke-width="0.5" fill="none"></path>
                        <path d="M1159.258,54 L1159,27" id="Stroke-570" stroke="#657FAF" stroke-width="0.5" fill="none"></path>
                        <path d="M1070,107 L1048,95" id="Stroke-572" stroke="#657FAF" stroke-width="0.5" fill="none"></path>
                        <path d="M1075,115 L1061,158" id="Stroke-574" stroke="#657FAF" stroke-width="0.5" fill="none"></path>
                        <path d="M1060,171 L1074,217" id="Stroke-576" stroke="#657FAF" stroke-width="0.5" fill="none"></path>
                        <path d="M1081,227 L1161,352" id="Stroke-578" stroke="#657FAF" stroke-width="0.5" fill="none"></path>
                        <path d="M1172,354 L1220,334" id="Stroke-580" stroke="#657FAF" stroke-width="0.5" fill="none"></path>
                        <path d="M1235,327 L1274,306" id="Stroke-582" stroke="#657FAF" stroke-width="0.5" fill="none"></path>
                        <path d="M1285,299 L1332,268" id="Stroke-584" stroke="#657FAF" stroke-width="0.5" fill="none"></path>
                        <path d="M1233,336 L1258,379" id="Stroke-586" stroke="#657FAF" stroke-width="0.5" fill="none"></path>
                        <path d="M1284,309 L1310,349" id="Stroke-588" stroke="#657FAF" stroke-width="0.5" fill="none"></path>
                        <path d="M1075,266 L1112,326" id="Stroke-590" stroke="#657FAF" stroke-width="0.5" fill="none"></path>
                        <path d="M1076,228 L1073,248" id="Stroke-592" stroke="#657FAF" stroke-width="0.5" fill="none"></path>
                        <path d="M1266,117 L1283,121" id="Stroke-594" stroke="#657FAF" stroke-width="0.5" fill="none"></path>
                        <path d="M1293,128 L1330,194" id="Stroke-596" stroke="#657FAF" stroke-width="0.5" fill="none"></path>
                        <path d="M1333,255 L1260,124" id="Stroke-598" stroke="#657FAF" stroke-width="0.5" fill="none"></path>
                        <path d="M1255,111 L1234,84" id="Stroke-600" stroke="#657FAF" stroke-width="0.5" fill="none"></path>
                        <path d="M1222,75 L1167,61" id="Stroke-602" stroke="#657FAF" stroke-width="0.5" fill="none"></path>
                        <path d="M1780,288 L1808,365" id="Stroke-604" stroke="#657FAF" stroke-width="0.5" fill="none"></path>
                        <path d="M1819,371 L1925,375" id="Stroke-606" stroke="#657FAF" stroke-width="0.5" fill="none"></path>
                        <path d="M1936,367 L1965,289" id="Stroke-608" stroke="#657FAF" stroke-width="0.5" fill="none"></path>
                        <path d="M1958,280 L1785,280" id="Stroke-610" stroke="#657FAF" stroke-width="0.5" fill="none"></path>
                        <path d="M1785,262 L1958,262" id="Stroke-612" stroke="#657FAF" stroke-width="0.5" fill="none"></path>
                        <path d="M1779,256 L1789,229" id="Stroke-614" stroke="#657FAF" stroke-width="0.5" fill="none"></path>
                        <path d="M1796,219 L1821,200" id="Stroke-616" stroke="#657FAF" stroke-width="0.5" fill="none"></path>
                        <path d="M1832,194 L1865,187" id="Stroke-618" stroke="#657FAF" stroke-width="0.5" fill="none"></path>
                        <path d="M1880,187 L1908,194" id="Stroke-620" stroke="#657FAF" stroke-width="0.5" fill="none"></path>
                        <path d="M1921,200 L1945,220" id="Stroke-622" stroke="#657FAF" stroke-width="0.5" fill="none"></path>
                        <path d="M1954,230 L1965,254" id="Stroke-624" stroke="#657FAF" stroke-width="0.5" fill="none"></path>
                        <path d="M1820,179 L1825,193" id="Stroke-626" stroke="#657FAF" stroke-width="0.5" fill="none"></path>
                        <path d="M1918,194 L1925,178" id="Stroke-628" stroke="#657FAF" stroke-width="0.5" fill="none"></path>
                        <path d="M1872,181 L1872,154" id="Stroke-630" stroke="#657FAF" stroke-width="0.5" fill="none"></path>
                        <path d="M1872,138 L1872,127" id="Stroke-632" stroke="#657FAF" stroke-width="0.5" fill="none"></path>
                    </g>
                </g>
            </g>
        </g>
    </g>
</svg>