<?xml version="1.0" encoding="UTF-8"?>
<svg width="21px" height="24px" viewBox="0 0 21 24" version="1.1" xmlns="http://www.w3.org/2000/svg" xmlns:xlink="http://www.w3.org/1999/xlink" fill="#78C257">
<path d="M1.49189189,7.78378378 C0.674594595,7.78378378 0.0194594595,8.44540541 0.0194594595,9.25621622 L0.0194594595,15.4313514 C0.0194594595,16.2486486 0.681081081,16.9037838 1.49189189,16.9102703 C2.30918919,16.9102703 2.96432432,16.2486486 2.96432432,15.4313514 L2.96432432,9.25621622 C2.97081081,8.44540541 2.30918919,7.78378378 1.49189189,7.78378378"></path>
<path d="M13.3881081,2.23783784 L14.4194595,0.356756757 C14.4713514,0.259459459 14.4389189,0.12972973 14.3416216,0.0778378378 C14.2378378,0.0259459459 14.1145946,0.0583783784 14.0627027,0.162162162 L13.0248649,2.0627027 C12.1491892,1.67351351 11.1697297,1.45297297 10.1383784,1.45945946 C9.10702703,1.45945946 8.12756757,1.67351351 7.25837838,2.0627027 L6.22054054,0.168648649 C6.16864865,0.0713513514 6.03891892,0.0324324324 5.94162162,0.0843243243 C5.84432432,0.136216216 5.80540541,0.265945946 5.8572973,0.363243243 L6.88864865,2.24432432 C4.86486486,3.28864865 3.49621622,5.27351351 3.49621622,7.55675676 L16.7805405,7.55675676 C16.7740541,5.26702703 15.4054054,3.28216216 13.3881081,2.23783784 M7.10918919,5.14378378 C6.80432432,5.14378378 6.55135135,4.8972973 6.55135135,4.58594595 C6.55135135,4.28108108 6.79783784,4.02810811 7.10918919,4.02810811 C7.41405405,4.02810811 7.66702703,4.28108108 7.66702703,4.58594595 C7.66702703,4.8972973 7.41405405,5.14378378 7.10918919,5.14378378 M13.1545946,5.14378378 C12.8497297,5.14378378 12.5967568,4.8972973 12.5967568,4.58594595 C12.5967568,4.28108108 12.8432432,4.02810811 13.1545946,4.02810811 C13.4594595,4.02810811 13.7124324,4.28108108 13.7124324,4.58594595 C13.7124324,4.89081081 13.4594595,5.14378378 13.1545946,5.14378378"></path>
<path d="M3.54162162,17.6367568 C3.54162162,18.5059459 4.24216216,19.212973 5.11783784,19.212973 L6.18810811,19.212973 L6.18810811,22.4821622 C6.18810811,23.292973 6.84972973,23.9545946 7.66054054,23.9545946 C8.47783784,23.9545946 9.13297297,23.292973 9.13297297,22.4756757 L9.13297297,19.2064865 L11.1243243,19.2064865 L11.1243243,22.4756757 C11.1243243,23.2864865 11.7859459,23.9481081 12.5967568,23.9481081 C13.4140541,23.9481081 14.0691892,23.2864865 14.0691892,22.4756757 L14.0691892,19.2064865 L15.1459459,19.2064865 C16.0151351,19.2064865 16.7221622,18.4994595 16.7221622,17.6302703 L16.7221622,8.05621622 L3.53513514,8.05621622 L3.54162162,17.6367568 Z"></path>
<path d="M18.7718919,7.78378378 C17.9545946,7.78378378 17.2994595,8.44540541 17.2994595,9.25621622 L17.2994595,15.4313514 C17.2994595,16.2486486 17.9610811,16.9037838 18.7718919,16.9037838 C19.5891892,16.9037838 20.2443243,16.2421622 20.2443243,15.4313514 L20.2443243,9.25621622 C20.2443243,8.44540541 19.5827027,7.78378378 18.7718919,7.78378378"></path>
</svg>